HIERARCHY
ROOT SimulationBone
{
	OFFSET 0.000000 0.000000 0.000000
	CHANNELS 6 Xposition Yposition Zposition Zrotation Yrotation Xrotation 
	JOINT Hips
	{
		OFFSET 0.000000 0.000000 0.000000
		CHANNELS 6 Xposition Yposition Zposition Zrotation Yrotation Xrotation 
		JOINT LeftUpLeg
		{
			OFFSET 0.103459 1.857831 10.548505
			CHANNELS 3 Zrotation Yrotation Xrotation
			JOINT LeftLeg
			{
				OFFSET 43.500004 -0.000023 -0.000004
				CHANNELS 3 Zrotation Yrotation Xrotation
				JOINT LeftFoot
				{
					OFFSET 42.372204 0.000019 -0.000006
					CHANNELS 3 Zrotation Yrotation Xrotation
					JOINT LeftToe
					{
						OFFSET 17.300005 0.000001 -0.000002
						CHANNELS 3 Zrotation Yrotation Xrotation
						End Site
						{
							OFFSET 0.000000 0.000000 0.000000
						}
					}
				}
			}
		}
		JOINT RightUpLeg
		{
			OFFSET 0.103461 1.857828 -10.548505
			CHANNELS 3 Zrotation Yrotation Xrotation
			JOINT RightLeg
			{
				OFFSET 43.500046 -0.000019 0.000006
				CHANNELS 3 Zrotation Yrotation Xrotation
				JOINT RightFoot
				{
					OFFSET 42.372261 -0.000015 0.000011
					CHANNELS 3 Zrotation Yrotation Xrotation
					JOINT RightToe
					{
						OFFSET 17.299999 -0.000003 0.000002
						CHANNELS 3 Zrotation Yrotation Xrotation
						End Site
						{
							OFFSET 0.000000 0.000000 0.000000
						}
					}
				}
			}
		}
		JOINT Spine
		{
			OFFSET 6.901964 -2.603731 0.000000
			CHANNELS 3 Zrotation Yrotation Xrotation
			JOINT Spine1
			{
				OFFSET 12.588102 -0.000003 0.000000
				CHANNELS 3 Zrotation Yrotation Xrotation
				JOINT Spine2
				{
					OFFSET 12.343204 0.000002 0.000000
					CHANNELS 3 Zrotation Yrotation Xrotation
					JOINT Neck
					{
						OFFSET 25.832891 -0.000013 0.000001
						CHANNELS 3 Zrotation Yrotation Xrotation
						JOINT Head
						{
							OFFSET 11.766613 0.000015 -0.000000
							CHANNELS 3 Zrotation Yrotation Xrotation
							End Site
							{
								OFFSET 0.000000 0.000000 0.000000
							}
						}
					}
					JOINT LeftShoulder
					{
						OFFSET 19.745911 -1.480375 6.000106
						CHANNELS 3 Zrotation Yrotation Xrotation
						JOINT LeftArm
						{
							OFFSET 11.284125 -0.000012 -0.000024
							CHANNELS 3 Zrotation Yrotation Xrotation
							JOINT LeftForeArm
							{
								OFFSET 33.000050 0.000007 0.000027
								CHANNELS 3 Zrotation Yrotation Xrotation
								JOINT LeftHand
								{
									OFFSET 25.200005 0.000018 0.000002
									CHANNELS 3 Zrotation Yrotation Xrotation
									End Site
									{
										OFFSET 0.000000 0.000000 0.000000
									}
								}
							}
						}
					}
					JOINT RightShoulder
					{
						OFFSET 19.746092 -1.480375 -6.000074
						CHANNELS 3 Zrotation Yrotation Xrotation
						JOINT RightArm
						{
							OFFSET 11.284139 -0.000017 -0.000020
							CHANNELS 3 Zrotation Yrotation Xrotation
							JOINT RightForeArm
							{
								OFFSET 33.000099 0.000021 0.000012
								CHANNELS 3 Zrotation Yrotation Xrotation
								JOINT RightHand
								{
									OFFSET 25.199780 0.000137 0.000427
									CHANNELS 3 Zrotation Yrotation Xrotation
									End Site
									{
										OFFSET 0.000000 0.000000 0.000000
									}
								}
							}
						}
					}
				}
			}
		}
	}
}
MOTION
Frames: 14
Frame Time: 0.033333
-46.701087 0.000000 284.509151 0.000000 254.558266 0.000000 -2.540615 77.491287 3.613536 96.771835 3.135816 -172.976230 136.509978 -6.385693 175.552486 -38.478062 2.230930 -4.774969 68.606730 0.559946 -8.210151 21.454551 0.003096 0.000004 177.259501 4.158804 -174.661119 -79.675816 1.188251 -3.443522 67.881569 3.682887 3.303700 21.454548 -0.003104 -0.000018 12.465862 -0.856294 2.035848 14.887075 -1.967700 3.944795 14.569617 -1.943735 3.956598 -10.454233 -2.014317 -14.655778 -16.900181 9.763026 -18.821652 167.933492 -77.189348 10.884619 10.604763 54.447488 45.838759 -35.182222 -15.170671 1.350386 5.354806 -5.054101 8.832697 98.916931 73.915460 -80.946566 -26.092748 -46.553651 4.970558 -76.788484 9.046691 -2.399305 -0.560811 15.817834 -30.730291 
-46.718564 0.000000 290.606736 0.000000 255.626152 0.000000 -1.044769 77.421837 2.865569 97.015964 2.208115 -176.558147 135.733248 -5.766602 174.500951 -50.221599 2.853878 -5.857215 72.889491 3.034354 -3.590668 21.454551 0.003089 -0.000002 177.520209 8.524006 -175.478024 -83.069826 0.504983 -3.776792 60.351483 6.608392 8.604878 21.454557 -0.003111 -0.000019 11.949381 -1.324450 1.902968 13.844611 -2.867296 3.634495 13.526794 -2.845180 3.651740 -10.267867 -1.863008 -14.192193 -15.583826 9.510956 -18.058464 169.617093 -77.252233 9.165721 13.220903 51.899452 48.365587 -34.055924 -14.716553 1.295614 5.139489 -7.005582 6.605304 98.713425 74.053321 -81.136247 -23.459051 -48.835436 -0.468803 -77.618242 8.269570 -2.380827 -0.248572 14.419788 -30.829244 
-46.914306 0.000000 296.577470 0.000000 256.489308 0.000000 0.015897 76.599579 2.344469 98.347395 1.253260 -178.443704 137.109026 -5.554503 169.934546 -60.040662 5.009112 -5.288376 81.413560 3.140335 -1.876924 21.454553 0.003085 0.000001 177.862907 11.530100 -175.123892 -87.770847 -0.538820 -1.686737 61.041476 5.974182 10.822372 21.454565 -0.003112 -0.000020 11.892333 -1.605403 1.707722 13.729969 -3.402266 3.213814 13.411839 -3.382666 3.234299 -10.726407 -2.336440 -14.104278 -15.030583 9.693233 -18.135298 167.548570 -77.255068 11.274327 10.382419 49.405736 47.945640 -31.470401 -14.061922 1.198485 5.456588 -8.393769 4.716165 100.612341 74.082527 -79.237680 -20.388569 -49.539526 -5.193816 -77.666327 7.920666 -2.358644 -1.070198 13.411170 -32.032491 
-47.274528 0.000000 302.423206 0.000000 257.164105 0.000000 0.443937 76.631493 2.046508 99.151132 0.919396 178.989688 140.327671 -6.077180 167.497658 -65.296882 5.409630 -5.668763 87.762815 3.512337 -1.442757 21.454548 0.003099 -0.000001 175.818741 12.006504 -175.926890 -92.223803 -1.864374 0.511087 68.167207 2.258697 7.019652 21.454562 -0.003108 -0.000014 11.799459 -1.786830 1.846128 13.535989 -3.777489 3.471882 13.217782 -3.756336 3.494643 -10.821169 -2.901008 -13.980269 -14.929439 10.065843 -18.337589 167.799511 -76.579705 11.045890 3.066752 47.510226 43.226710 -27.457615 -14.564011 1.154996 5.084536 -7.665902 6.297892 106.892904 73.778269 -72.984861 -17.287969 -49.311466 -9.083557 -75.732796 8.600415 -2.323371 -2.014735 11.773425 -34.144030 
-47.785444 0.000000 308.145793 0.000000 257.664885 0.000000 0.477133 77.101067 1.872962 99.399060 1.463625 177.662468 143.750074 -6.420804 167.636324 -68.295813 4.717578 -6.328116 92.919772 3.897370 -2.192128 21.454553 0.003093 0.000001 171.890740 10.529294 -175.853261 -95.703750 -2.426284 4.282106 73.907810 -1.912338 3.327703 21.454562 -0.003111 -0.000019 11.643161 -1.694498 1.752909 13.228182 -3.578395 3.301704 12.909986 -3.558264 3.323261 -10.763493 -3.349686 -13.399466 -14.793104 10.825548 -18.177010 168.602304 -77.000336 10.210122 -3.891662 47.650849 33.548188 -25.577260 -15.999508 1.214939 6.392728 -6.862708 8.618146 109.578125 73.643687 -70.306238 -16.306481 -50.706512 -11.125088 -70.948672 10.338583 -2.243532 -2.091179 11.580295 -35.496418 
-48.433270 0.000000 313.747082 0.000000 258.004124 0.000000 0.068558 78.092003 1.798219 99.458197 1.908450 177.292195 147.740584 -6.121508 167.611599 -68.776713 4.670999 -6.750708 96.376496 4.108486 -3.215017 21.454553 0.003090 0.000000 167.245351 8.290692 -174.335948 -96.516174 -2.927738 9.524315 79.894943 -5.706021 3.360333 21.454555 -0.003107 -0.000022 11.552271 -1.495630 1.493070 13.057885 -3.150295 2.808496 12.739702 -3.133149 2.827473 -10.761188 -3.694321 -12.999921 -14.826918 10.780632 -17.901735 166.862095 -76.781011 11.993807 -10.085122 47.619082 21.038919 -27.127920 -17.551220 1.339704 7.369197 -8.182594 7.954114 109.594483 73.806382 -70.274102 -15.936834 -53.440848 -11.472168 -64.608733 12.229948 -2.118732 -0.075230 13.070303 -34.337939 
-49.204221 0.000000 319.228926 0.000000 258.192616 0.000000 -0.598872 79.288910 1.652007 99.244349 1.689309 176.808162 151.974578 -5.256604 166.731953 -67.639999 5.028861 -7.019603 98.566009 4.222998 -4.299703 21.454551 0.003097 0.000002 161.736544 6.229206 -173.732132 -94.730086 -2.829247 12.850043 84.984028 -8.455991 1.376609 21.454558 -0.003110 -0.000023 11.468504 -1.458748 1.238499 12.897952 -3.046550 2.307132 12.579653 -3.032424 2.325518 -11.228117 -3.204403 -12.832052 -14.907475 10.629679 -17.512651 163.774167 -76.955564 15.134340 -15.876271 47.345167 9.763265 -31.246630 -18.325918 1.467614 8.645718 -10.283582 2.446852 111.137901 73.874090 -68.718923 -15.419840 -55.660212 -11.302153 -57.904322 13.820812 -1.973629 2.761284 14.387360 -30.591345 
-50.084510 0.000000 324.593174 0.000000 258.239669 0.000000 -1.260145 80.612244 1.585105 98.846629 1.282391 176.121985 156.423189 -4.590099 165.670227 -65.482991 5.126978 -6.910328 99.857878 4.101855 -5.346716 21.454551 0.003094 -0.000001 156.187452 4.343792 -174.494408 -90.538365 -1.940842 12.725689 87.684944 -8.560264 0.352581 21.454553 -0.003107 -0.000018 11.343681 -1.438392 0.964510 12.655780 -2.973716 1.766225 12.337394 -2.962853 1.784158 -11.894757 -3.293859 -12.497861 -14.457921 11.028040 -17.295089 161.459989 -78.120644 17.434309 -21.522619 48.158858 1.071568 -37.266960 -19.291212 1.667011 9.722665 -12.431275 -3.458473 112.240137 74.000954 -67.600110 -14.524343 -57.221710 -11.752773 -51.398341 14.837662 -1.815437 5.756828 15.311286 -26.265790 
-51.060352 0.000000 329.841678 0.000000 258.153305 0.000000 -1.703517 81.918678 1.482997 98.426503 1.145372 175.757209 161.102538 -4.269804 165.093144 -62.789663 4.729168 -6.538916 100.715005 3.846410 -6.135783 21.454550 0.003089 0.000000 151.867139 2.096404 -175.929390 -83.591625 0.216678 12.667422 89.617908 -8.570141 0.407008 21.454557 -0.003111 -0.000018 11.186386 -1.296593 0.614204 12.350620 -2.651380 1.086556 12.032223 -2.644633 1.102574 -12.488479 -3.360757 -12.049050 -13.641326 11.024997 -16.772409 159.442406 -78.873884 19.446286 -25.511189 48.238085 -3.893265 -44.281052 -20.371944 1.929638 9.848889 -13.779775 -4.747467 113.739404 74.010543 -66.093056 -12.067550 -57.730186 -14.206512 -45.981595 15.306182 -1.674896 7.590122 14.753381 -23.090252 
-52.117963 0.000000 334.976288 0.000000 257.940441 0.000000 -1.834485 83.266663 1.290828 97.977459 1.225264 175.631184 166.270546 -4.084195 164.485367 -59.152382 4.261089 -6.004104 101.080099 3.499158 -6.618631 21.454548 0.003096 -0.000003 148.942985 0.044910 -176.544271 -74.268390 2.401483 13.304466 89.670132 -9.152001 0.023828 21.454560 -0.003117 -0.000016 10.994986 -1.088631 0.263413 11.975351 -2.198693 0.412686 11.657022 -2.196016 0.425967 -13.069225 -3.276185 -11.625113 -12.831319 10.838567 -16.159597 157.317657 -79.366586 21.576429 -27.995339 47.634648 -6.748150 -51.595386 -20.439715 2.167445 8.652093 -14.309288 -1.877617 115.143548 74.291961 -64.654687 -8.679410 -57.931178 -17.689136 -41.858490 15.596199 -1.574795 8.700911 12.932331 -23.222997 
-53.243556 0.000000 339.998856 0.000000 257.607067 0.000000 -1.661796 84.443039 0.914559 97.512408 0.843661 175.488519 171.949466 -3.263899 163.295534 -54.392751 3.923503 -5.305394 101.069390 3.039085 -6.945248 21.454550 0.003083 -0.000001 147.364063 -1.119907 -176.863773 -63.176238 4.331731 14.087370 88.698981 -9.731248 0.404519 21.454557 -0.003106 -0.000017 10.742136 -0.977127 -0.109210 11.475753 -1.938599 -0.314924 11.157457 -1.940333 -0.303197 -13.273265 -3.295327 -11.160820 -12.542416 10.927287 -15.707080 156.037202 -79.814777 22.849618 -29.089031 46.720355 -8.437697 -58.956868 -19.263051 2.350874 6.680586 -15.587719 3.838253 116.330593 74.813931 -63.411278 -4.628186 -57.967105 -21.842332 -39.094661 15.531570 -1.496682 9.240242 11.736638 -24.132389 
-54.423347 0.000000 344.911233 0.000000 257.158413 0.000000 -1.200152 85.210136 0.394123 96.771949 -0.034610 175.739822 177.588579 -1.781497 162.217252 -48.935864 3.567168 -4.436746 100.906899 2.462917 -7.213655 21.454553 0.003087 -0.000002 146.832784 -1.338189 -175.053363 -50.429619 4.964875 15.537323 86.431140 -10.823622 0.391090 21.454558 -0.003107 -0.000017 10.360317 -0.931252 -0.573990 10.718841 -1.805308 -1.231949 10.400653 -1.812589 -1.221011 -13.980095 -2.868245 -10.620370 -11.433728 10.243575 -14.659025 154.600458 -80.368835 24.273143 -29.143389 46.222451 -10.160971 -65.768452 -17.021574 2.460347 4.954291 -16.199641 9.247113 117.895048 75.339432 -61.787858 0.414363 -57.546775 -26.619313 -37.410497 15.387933 -1.444796 8.892605 10.678514 -24.971279 
-55.643550 0.000000 349.715270 0.000000 256.599100 0.000000 -0.415447 85.537331 -0.055929 96.456877 -0.933734 176.696580 -176.424333 -0.496901 162.034162 -43.716028 2.794566 -3.476909 100.059703 1.795004 -7.421711 21.454548 0.003084 -0.000001 148.197551 -1.228705 -171.718209 -36.831501 4.680372 16.278624 84.775147 -11.366085 0.567653 21.454557 -0.003106 -0.000016 10.035573 -0.849216 -1.072291 10.074800 -1.601845 -2.214637 9.756819 -1.615061 -2.204930 -14.483563 -3.043989 -10.062072 -10.696721 9.938315 -14.007968 152.665123 -81.039826 26.191571 -29.251877 46.006283 -11.398334 -71.154937 -14.622520 2.513132 3.401414 -16.659432 11.980924 117.445909 76.553307 -62.125686 5.606706 -57.574321 -31.096096 -36.941526 15.120167 -1.415924 8.609029 10.643839 -24.226363 
-56.890381 0.000000 354.412818 0.000000 255.933293 0.000000 0.677547 85.224762 -0.425233 96.742170 -1.806574 177.808987 -170.104960 0.264204 161.815009 -39.457204 1.934872 -2.124968 98.885662 0.831132 -7.708692 21.454553 0.003087 -0.000001 150.372010 -1.302979 -170.817157 -26.432544 4.922184 17.782935 83.757647 -12.280875 1.571130 21.454557 -0.003105 -0.000013 9.798144 -0.799151 -1.434624 9.603186 -1.476507 -2.930816 9.285417 -1.494044 -2.921846 -14.889792 -2.827147 -9.854985 -9.669969 9.231781 -13.393893 146.127799 -81.534126 32.765661 -29.085568 46.114026 -12.784025 -75.468126 -12.021295 2.512782 3.233836 -16.133361 12.158952 119.714747 77.216655 -59.781531 12.011448 -56.395912 -36.011274 -37.501481 15.035850 -1.424189 8.306751 11.136809 -22.983645 
